<svg xmlns="http://www.w3.org/2000/svg">
<defs>
<font
       id="FontID0"
       fullFontName="Arial"
       fontVariant="normal"
       fontWeight="400,700"
       horiz-origin-x="0"
       horiz-origin-y="0"
       horiz-adv-x="90"
       vert-origin-x="45"
       vert-origin-y="90"
       vert-adv-y="90"><font-face
         font-family="Arial"
         id="font-face2" /><missing-glyph
         id="missing-glyph6"><path
           d="M0 0z"
           id="path4" /></missing-glyph><glyph
         unicode="+"
         horiz-adv-x="584"
         id="glyph10"><path
           d="M252 117l0 193 -198 0 0 84 198 0 0 194 79 0 0 -194 198 0 0 -84 -198 0 0 -193 -79 0z"
           id="path8" /></glyph><glyph
         unicode=","
         horiz-adv-x="277"
         id="glyph14"><path
           d="M88 0l0 100 101 0 0 -100c0,-37 -9,-67 -21,-88 -13,-25 -34,-42 -59,-54l-25 37c16,9 29,21 42,38 8,17 12,38 12,67l-50 0z"
           id="path12" /></glyph><glyph
         unicode=")"
         horiz-adv-x="333"
         id="glyph18"><path
           d="M121 -210l-63 0c101,156 147,310 147,470 0,59 -8,122 -21,181 -8,50 -25,96 -46,138 -12,30 -38,80 -80,147l63 0c63,-79 110,-163 139,-243 25,-72 38,-147 38,-223 0,-88 -17,-172 -51,-256 -33,-79 -75,-155 -126,-214z"
           id="path16" /></glyph><glyph
         unicode="("
         horiz-adv-x="333"
         id="glyph22"><path
           d="M235 -210c-51,59 -93,135 -126,214 -34,84 -51,168 -51,256 0,76 13,151 38,223 30,80 76,164 139,243l63 0c-42,-67 -67,-113 -80,-142 -21,-47 -34,-93 -46,-143 -13,-59 -21,-122 -21,-181 0,-160 46,-314 147,-470l-63 0z"
           id="path20" /></glyph><glyph
         unicode="."
         horiz-adv-x="277"
         id="glyph26"><path
           d="M92 0l0 100 97 0 0 -100 -97 0z"
           id="path24" /></glyph><glyph
         unicode="-"
         horiz-adv-x="333"
         id="glyph30"><path
           d="M54 189l0 138 273 0 0 -138 -273 0z"
           id="path28" /></glyph><glyph
         unicode=" "
         horiz-adv-x="277"
         id="glyph34"><path
           d="M67 0"
           id="path32" /></glyph><glyph
         unicode="9"
         horiz-adv-x="556"
         id="glyph38"><path
           d="M54 164l86 10c7,-41 20,-68 41,-89 21,-17 45,-24 75,-24 28,0 52,4 72,17 21,14 38,28 52,48 13,24 24,52 30,86 11,34 14,72 14,106 0,3 0,10 0,17 -17,-27 -41,-48 -72,-65 -31,-20 -65,-27 -99,-27 -58,0 -110,20 -151,65 -41,41 -61,99 -61,168 0,75 20,133 65,178 41,44 96,65 161,65 48,0 89,-14 126,-38 41,-24 69,-62 89,-106 21,-48 31,-113 31,-202 0,-93 -10,-165 -31,-219 -20,-55 -48,-96 -89,-124 -37,-27 -85,-43 -137,-43 -58,0 -102,16 -137,47 -37,31 -58,75 -65,130zm360 318c0,48 -14,89 -41,120 -24,31 -58,45 -96,45 -38,0 -72,-17 -103,-48 -27,-31 -41,-76 -41,-123 0,-48 14,-86 41,-113 28,-28 62,-42 99,-42 42,0 76,14 103,42 24,27 38,68 38,119z"
           id="path36" /></glyph><glyph
         unicode="8"
         horiz-adv-x="556"
         id="glyph42"><path
           d="M178 386c-38,14 -65,35 -83,59 -17,24 -27,55 -27,89 0,51 21,96 58,133 38,35 86,52 147,52 66,0 113,-17 151,-55 41,-34 58,-79 58,-134 0,-30 -6,-61 -24,-85 -20,-24 -44,-45 -82,-59 45,-13 79,-34 103,-68 21,-31 34,-68 34,-113 0,-62 -24,-113 -65,-154 -44,-41 -103,-64 -171,-64 -72,0 -127,23 -171,64 -45,41 -65,92 -65,157 0,45 10,86 34,117 24,31 58,51 103,61zm-18 151c0,-34 11,-61 31,-82 21,-24 52,-34 86,-34 34,0 62,10 82,34 24,21 34,48 34,79 0,31 -10,58 -34,79 -24,23 -51,34 -82,34 -34,0 -62,-11 -86,-31 -20,-24 -31,-48 -31,-79zm-30 -332c0,-24 6,-48 17,-72 13,-24 31,-41 55,-55 24,-13 48,-17 75,-17 41,0 75,10 103,38 27,27 41,61 41,106 0,41 -14,75 -41,103 -28,27 -62,41 -107,41 -41,0 -75,-14 -102,-41 -28,-28 -41,-62 -41,-103z"
           id="path40" /></glyph><glyph
         unicode="7"
         horiz-adv-x="556"
         id="glyph46"><path
           d="M47 621l0 86 462 0 0 -69c-44,-49 -89,-114 -133,-193 -45,-82 -79,-163 -104,-247 -18,-62 -30,-127 -35,-198l-89 0c0,56 10,123 32,205 22,79 52,156 92,230 39,74 81,136 126,186l-351 0z"
           id="path44" /></glyph><glyph
         unicode="6"
         horiz-adv-x="556"
         id="glyph50"><path
           d="M497 539l-87 -5c-7,35 -19,60 -34,74 -23,25 -52,38 -87,38 -30,0 -52,-8 -74,-23 -27,-20 -50,-49 -65,-89 -17,-39 -24,-94 -24,-166 20,32 47,57 76,72 30,15 62,25 97,25 57,0 109,-22 149,-65 42,-44 61,-99 61,-168 0,-44 -9,-86 -29,-126 -18,-37 -45,-67 -80,-89 -32,-19 -71,-29 -113,-29 -75,0 -134,26 -181,81 -45,54 -69,141 -69,265 0,138 27,240 76,302 45,54 104,84 181,84 57,0 102,-18 139,-50 34,-29 57,-74 64,-131zm-359 -307c0,-30 8,-59 20,-86 12,-30 30,-50 54,-65 23,-15 47,-22 72,-22 37,0 69,15 97,44 24,33 39,72 39,124 0,50 -12,89 -39,117 -28,29 -60,42 -99,42 -40,0 -75,-13 -102,-42 -27,-28 -42,-67 -42,-112z"
           id="path48" /></glyph><glyph
         unicode="5"
         horiz-adv-x="556"
         id="glyph54"><path
           d="M41 188l92 7c7,-45 24,-79 48,-103 24,-21 55,-31 89,-31 45,0 79,14 110,48 27,31 44,72 44,127 0,48 -14,89 -44,116 -28,31 -65,45 -110,45 -27,0 -55,-7 -75,-21 -24,-10 -41,-27 -55,-48l-82 11 68 366 356 0 0 -82 -284 0 -41 -192c45,27 89,45 137,45 62,0 113,-24 158,-66 44,-44 65,-99 65,-167 0,-65 -21,-120 -59,-168 -44,-58 -106,-88 -188,-88 -65,0 -116,19 -157,54 -42,37 -66,85 -72,147z"
           id="path52" /></glyph><glyph
         unicode="4"
         horiz-adv-x="556"
         id="glyph58"><path
           d="M321 0l0 171 -308 0 0 82 326 462 71 0 0 -462 96 0 0 -82 -96 0 0 -171 -89 0zm0 253l0 322 -222 -322 222 0z"
           id="path56" /></glyph><glyph
         unicode="3"
         horiz-adv-x="556"
         id="glyph62"><path
           d="M41 188l89 14c10,-52 27,-86 51,-110 24,-21 55,-31 89,-31 41,0 75,14 106,41 28,28 41,65 41,106 0,42 -13,76 -37,100 -28,27 -62,41 -103,41 -17,0 -38,-4 -62,-10l11 78c6,-3 10,-3 13,-3 38,0 72,10 100,31 30,20 47,48 47,89 0,34 -13,61 -34,82 -20,20 -51,31 -85,31 -35,0 -62,-11 -86,-31 -21,-24 -38,-55 -41,-99l-89 17c10,58 34,102 72,137 37,31 85,48 144,48 37,0 75,-7 106,-24 34,-17 58,-41 75,-69 17,-31 28,-61 28,-92 0,-31 -7,-62 -24,-86 -18,-24 -42,-44 -76,-62 45,-6 76,-27 100,-58 24,-31 34,-72 34,-116 0,-62 -21,-117 -69,-161 -44,-41 -102,-64 -171,-64 -65,0 -116,19 -157,57 -42,38 -66,86 -72,144z"
           id="path60" /></glyph><glyph
         unicode="1"
         horiz-adv-x="556"
         id="glyph66"><path
           d="M373 0l-89 0 0 559c-22,-20 -49,-40 -84,-59 -35,-20 -64,-35 -92,-45l0 84c50,22 92,52 129,84 37,32 64,65 79,97l57 0 0 -720z"
           id="path64" /></glyph><glyph
         unicode="0"
         horiz-adv-x="556"
         id="glyph70"><path
           d="M41 352c0,86 10,154 27,206 17,51 41,92 75,120 38,27 79,41 130,41 42,0 72,-7 103,-24 28,-14 52,-38 72,-65 17,-31 34,-65 45,-107 10,-44 17,-99 17,-171 0,-82 -10,-150 -28,-202 -17,-51 -44,-92 -78,-120 -35,-27 -76,-43 -131,-43 -68,0 -123,26 -160,74 -48,62 -72,158 -72,291zm92 0c0,-116 14,-195 41,-233 28,-41 62,-58 99,-58 42,0 76,17 103,58 28,38 41,117 41,233 0,120 -13,199 -41,237 -27,37 -61,58 -103,58 -41,0 -71,-17 -95,-52 -31,-44 -45,-123 -45,-243z"
           id="path68" /></glyph><glyph
         unicode="2"
         horiz-adv-x="556"
         id="glyph74"><path
           d="M503 85l0 -85 -473 0c0,20 4,41 11,61 10,31 30,65 58,96 27,31 65,65 113,106 79,65 133,117 161,154 24,38 37,72 37,106 0,35 -10,62 -34,86 -27,24 -58,38 -99,38 -41,0 -75,-14 -103,-38 -24,-27 -38,-62 -38,-106l-89 10c4,65 28,117 69,154 41,35 96,52 164,52 69,0 124,-17 161,-59 41,-37 62,-85 62,-140 0,-27 -7,-58 -17,-86 -14,-27 -31,-54 -58,-85 -28,-31 -72,-72 -137,-127 -52,-44 -86,-75 -103,-89 -14,-17 -28,-34 -34,-48l349 0z"
           id="path72" /></glyph><glyph
         unicode="A"
         horiz-adv-x="722"
         id="glyph78"><path
           d="M717 0l-156 0 -63 163 -287 0 -60 -163 -151 0 278 717 152 0 287 -717zm-267 282l-96 267 -100 -267 196 0z"
           id="path76" /></glyph><glyph
         unicode="L"
         horiz-adv-x="610"
         id="glyph82"><path
           d="M75 0l0 709 148 0 0 -590 358 0 0 -119 -506 0z"
           id="path80" /></glyph><glyph
         unicode="I"
         horiz-adv-x="277"
         id="glyph86"><path
           d="M67 0l0 717 144 0 0 -717 -144 0z"
           id="path84" /></glyph><glyph
         unicode="F"
         horiz-adv-x="610"
         id="glyph90"><path
           d="M84 0l0 714 479 0 0 -84 -387 0 0 -219 336 0 0 -88 -336 0 0 -323 -92 0z"
           id="path88" /></glyph><glyph
         unicode="G"
         horiz-adv-x="777"
         id="glyph94"><path
           d="M406 262l0 120 311 0 0 -283c-32,-32 -76,-56 -132,-80 -56,-19 -115,-30 -175,-30 -76,0 -140,14 -195,46 -56,32 -96,76 -124,136 -28,56 -44,119 -44,187 0,76 16,143 48,199 32,60 76,104 136,136 47,24 103,36 171,36 92,0 159,-20 207,-56 52,-40 84,-92 100,-156l-144 -27c-12,35 -32,63 -60,83 -27,20 -59,32 -103,32 -64,0 -112,-20 -152,-60 -35,-40 -55,-99 -55,-179 0,-84 20,-147 59,-191 36,-44 88,-64 148,-64 28,0 60,4 92,16 27,12 55,28 75,44l0 91 -163 0z"
           id="path92" /></glyph><glyph
         unicode="E"
         horiz-adv-x="666"
         id="glyph98"><path
           d="M71 0l0 717 530 0 0 -124 -382 0 0 -159 358 0 0 -120 -358 0 0 -195 398 0 0 -119 -546 0z"
           id="path96" /></glyph><glyph
         unicode="K"
         horiz-adv-x="722"
         id="glyph102"><path
           d="M75 0l0 717 144 0 0 -319 290 319 196 0 -271 -279 287 -438 -188 0 -199 334 -115 -119 0 -215 -144 0z"
           id="path100" /></glyph><glyph
         unicode="N"
         horiz-adv-x="722"
         id="glyph106"><path
           d="M75 0l0 717 140 0 290 -478 0 478 136 0 0 -717 -143 0 -291 466 0 -466 -132 0z"
           id="path104" /></glyph><glyph
         unicode="O"
         horiz-adv-x="777"
         id="glyph110"><path
           d="M43 354c0,72 12,132 32,183 16,36 40,68 68,96 28,32 60,52 92,68 43,16 95,28 155,28 104,0 187,-32 251,-100 64,-64 96,-155 96,-271 0,-115 -32,-207 -92,-271 -64,-68 -147,-98 -255,-98 -104,0 -191,30 -251,94 -64,68 -96,156 -96,271zm148 4c0,-80 20,-143 56,-183 39,-44 87,-64 143,-64 60,0 104,20 143,64 36,40 56,103 56,183 0,84 -20,143 -56,187 -35,40 -83,60 -143,60 -60,0 -108,-20 -143,-64 -36,-40 -56,-99 -56,-183z"
           id="path108" /></glyph><glyph
         unicode="B"
         horiz-adv-x="722"
         id="glyph114"><path
           d="M71 717l287 0c56,0 100,-4 128,-8 27,-4 51,-16 75,-32 20,-12 40,-32 56,-60 12,-24 20,-52 20,-84 0,-32 -8,-63 -28,-91 -16,-28 -40,-48 -72,-64 44,-12 76,-32 100,-64 24,-32 36,-67 36,-107 0,-32 -8,-64 -24,-96 -16,-28 -36,-56 -60,-72 -28,-20 -60,-32 -99,-36 -24,0 -80,-3 -172,-3l-247 0 0 717zm148 -120l0 -167 91 0c60,0 92,0 108,4 24,4 44,12 56,24 16,16 24,32 24,55 0,24 -8,40 -20,56 -12,12 -28,20 -52,24 -16,4 -56,4 -124,4l-83 0zm0 -287l0 -191 131 0c52,0 88,4 100,4 24,4 40,16 51,32 16,12 20,32 20,60 0,20 -4,39 -16,55 -7,12 -23,24 -43,32 -20,4 -64,8 -128,8l-115 0z"
           id="path112" /></glyph><glyph
         unicode="D"
         horiz-adv-x="722"
         id="glyph118"><path
           d="M71 717l263 0c60,0 108,-4 140,-16 39,-12 75,-32 107,-64 28,-32 52,-72 68,-116 16,-47 24,-103 24,-171 0,-60 -8,-107 -24,-151 -16,-52 -44,-96 -76,-128 -24,-24 -60,-44 -99,-56 -32,-12 -76,-15 -132,-15l-271 0 0 717zm144 -124l0 -474 107 0c44,0 72,4 88,8 24,4 44,16 60,28 16,16 28,40 39,72 8,31 12,75 12,131 0,56 -4,96 -12,128 -11,27 -23,51 -43,67 -16,16 -40,28 -68,36 -20,4 -56,4 -116,4l-67 0z"
           id="path116" /></glyph><glyph
         unicode="M"
         horiz-adv-x="833"
         id="glyph122"><path
           d="M75 0l0 714 143 0 168 -504c17,-47 25,-84 34,-105 8,25 21,63 37,113l173 496 126 0 0 -714 -88 0 0 600 -211 -600 -84 0 -210 609 0 -609 -88 0z"
           id="path120" /></glyph><glyph
         unicode="H"
         horiz-adv-x="722"
         id="glyph126"><path
           d="M71 0l0 717 148 0 0 -283 282 0 0 283 144 0 0 -717 -144 0 0 314 -282 0 0 -314 -148 0z"
           id="path124" /></glyph><glyph
         unicode="C"
         horiz-adv-x="722"
         id="glyph130"><path
           d="M529 262l140 -43c-20,-80 -56,-136 -108,-176 -48,-36 -111,-54 -187,-54 -96,0 -175,30 -235,94 -60,68 -92,156 -92,267 0,120 32,211 92,279 60,64 143,100 243,100 88,0 159,-28 215,-80 32,-28 56,-72 72,-132l-144 -31c-8,35 -27,63 -51,87 -28,20 -60,32 -100,32 -52,0 -96,-20 -127,-60 -36,-36 -52,-99 -52,-183 0,-92 16,-155 52,-195 31,-36 71,-56 123,-56 40,0 72,12 100,36 28,24 47,64 59,115z"
           id="path128" /></glyph><glyph
         unicode="U"
         horiz-adv-x="722"
         id="glyph134"><path
           d="M71 717l144 0 0 -391c0,-60 4,-99 8,-119 4,-28 20,-52 43,-68 24,-20 56,-28 96,-28 40,0 72,8 92,24 20,16 32,40 36,64 4,24 8,63 8,119l0 399 143 0 0 -379c0,-84 -4,-147 -12,-179 -8,-36 -20,-68 -40,-92 -24,-24 -52,-44 -88,-60 -31,-10 -79,-18 -135,-18 -68,0 -119,8 -155,22 -36,16 -64,36 -84,60 -20,28 -36,52 -40,80 -12,44 -16,103 -16,183l0 383z"
           id="path132" /></glyph><glyph
         unicode="Z"
         horiz-adv-x="610"
         id="glyph138"><path
           d="M21 0l0 88 365 458c25,33 50,63 76,84l-399 0 0 84 512 0 0 -84 -403 -496 -42 -50 454 0 0 -84 -563 0z"
           id="path136" /></glyph><glyph
         unicode="R"
         horiz-adv-x="722"
         id="glyph142"><path
           d="M71 0l0 717 307 0c76,0 131,-8 167,-20 32,-12 60,-36 80,-68 24,-36 32,-72 32,-116 0,-51 -16,-95 -48,-131 -28,-36 -76,-56 -139,-68 31,-16 55,-36 75,-60 20,-19 48,-59 84,-115l88 -139 -172 0 -107 155c-36,56 -60,92 -76,107 -12,12 -28,24 -44,28 -16,4 -40,8 -71,8l-28 0 0 -298 -148 0zm148 414l103 0c72,0 116,0 132,8 16,4 32,16 40,28 11,16 15,36 15,55 0,24 -8,44 -19,60 -12,12 -32,24 -56,28 -8,0 -44,0 -104,0l-111 0 0 -179z"
           id="path140" /></glyph><glyph
         unicode="S"
         horiz-adv-x="666"
         id="glyph146"><path
           d="M35 231l140 16c8,-48 28,-84 52,-104 27,-24 63,-36 107,-36 44,0 80,12 104,32 24,20 36,44 36,68 0,16 -4,32 -16,43 -8,12 -28,24 -52,32 -16,4 -56,16 -116,32 -75,16 -131,40 -163,68 -44,40 -64,88 -64,147 0,36 8,68 28,100 24,32 52,56 92,72 40,20 83,28 139,28 92,0 160,-20 203,-60 44,-40 68,-92 72,-160l-143 -4c-8,36 -20,64 -40,80 -20,16 -52,24 -92,24 -44,0 -75,-8 -99,-28 -16,-12 -24,-24 -24,-44 0,-16 8,-32 24,-43 16,-16 59,-32 131,-48 72,-16 124,-32 155,-52 36,-16 60,-40 80,-72 20,-32 28,-68 28,-115 0,-40 -12,-80 -32,-116 -24,-36 -56,-60 -99,-80 -40,-14 -92,-22 -156,-22 -91,0 -159,18 -207,62 -48,40 -80,100 -88,180z"
           id="path144" /></glyph><glyph
         unicode="T"
         horiz-adv-x="610"
         id="glyph150"><path
           d="M235 0l0 593 -216 0 0 124 570 0 0 -124 -211 0 0 -593 -143 0z"
           id="path148" /></glyph><glyph
         unicode="V"
         horiz-adv-x="666"
         id="glyph154"><path
           d="M254 0l-254 717 155 0 183 -530 175 530 152 0 -255 -717 -156 0z"
           id="path152" /></glyph><glyph
         unicode="P"
         horiz-adv-x="667"
         id="glyph158"><path
           d="M71 0l0 714 235 0c84,0 143,0 168,-9 42,-12 76,-33 105,-71 30,-34 42,-80 42,-139 0,-42 -8,-80 -25,-109 -17,-34 -33,-55 -59,-71 -25,-17 -50,-30 -75,-34 -34,-8 -84,-13 -152,-13l-92 0 0 -268 -147 0zm147 596l0 -206 80 0c54,0 92,4 113,13 17,8 34,17 46,33 9,17 13,34 13,59 0,26 -4,47 -21,63 -17,17 -34,26 -59,30 -17,4 -50,8 -105,8l-67 0z"
           id="path156" /></glyph><glyph
         unicode="f"
         horiz-adv-x="278"
         id="glyph162"><path
           d="M87 0l0 449 -78 0 0 69 78 0 0 55c0,37 4,60 9,78 9,23 23,41 46,55 18,14 50,23 87,23 27,0 55,-5 82,-9l-13 -78c-19,4 -32,4 -51,4 -27,0 -46,-4 -55,-13 -14,-14 -18,-37 -18,-65l0 -50 101 0 0 -69 -101 0 0 -449 -87 0z"
           id="path160" /></glyph><glyph
         unicode="g"
         horiz-adv-x="556"
         id="glyph166"><path
           d="M50 -42l84 -12c4,-30 13,-46 29,-59 21,-17 55,-25 93,-25 38,0 71,8 92,25 21,17 38,38 46,67 5,21 5,58 5,113 -38,-46 -84,-67 -143,-67 -72,0 -126,25 -164,75 -42,55 -59,114 -59,185 0,50 9,97 25,139 17,42 47,75 80,96 34,26 72,34 118,34 63,0 113,-25 151,-72l0 59 80 0 0 -445c0,-79 -9,-138 -21,-171 -17,-34 -46,-59 -80,-80 -34,-21 -80,-30 -130,-30 -63,0 -114,13 -151,42 -38,26 -55,68 -55,126zm71 310c0,-67 13,-117 42,-151 26,-29 59,-46 101,-46 42,0 76,17 101,46 29,34 42,80 42,147 0,63 -13,114 -42,143 -29,34 -63,50 -101,50 -42,0 -75,-16 -101,-46 -29,-33 -42,-80 -42,-143z"
           id="path164" /></glyph><glyph
         unicode="j"
         horiz-adv-x="277"
         id="glyph170"><path
           d="M67 588l0 126 138 0 0 -126 -138 0zm138 -72l0 -500c0,-66 -4,-112 -12,-137 -9,-30 -25,-51 -51,-68 -25,-12 -54,-21 -92,-21 -17,0 -29,0 -46,5 -16,0 -33,4 -50,8l25 118c5,0 13,0 17,0 4,-5 12,-5 16,-5 13,0 25,5 34,9 8,8 17,17 17,25 4,8 4,34 4,75l0 491 138 0z"
           id="path168" /></glyph><glyph
         unicode="h"
         horiz-adv-x="556"
         id="glyph174"><path
           d="M67 0l0 714 88 0 0 -257c38,51 92,72 155,72 38,0 72,-8 97,-21 29,-17 50,-38 63,-63 13,-25 17,-67 17,-118l0 -327 -88 0 0 327c0,46 -9,76 -26,97 -21,21 -46,29 -84,29 -25,0 -50,-4 -71,-21 -25,-12 -42,-29 -50,-54 -9,-21 -13,-55 -13,-93l0 -285 -88 0z"
           id="path172" /></glyph><glyph
         unicode="e"
         horiz-adv-x="556"
         id="glyph178"><path
           d="M420 168l92 -13c-17,-55 -42,-92 -80,-122 -38,-29 -88,-45 -147,-45 -80,0 -138,24 -180,70 -47,47 -68,114 -68,198 0,84 21,155 68,201 42,47 100,72 172,72 71,0 126,-21 172,-72 42,-46 67,-113 67,-197 0,-4 -4,-13 -4,-25l-386 0c4,-55 21,-101 50,-130 29,-30 63,-47 109,-47 30,0 59,9 80,26 25,16 42,46 55,84zm-286 142l286 0c0,42 -13,76 -30,97 -29,34 -67,50 -109,50 -42,0 -76,-12 -105,-42 -25,-25 -42,-63 -42,-105z"
           id="path176" /></glyph><glyph
         unicode="c"
         horiz-adv-x="500"
         id="glyph182"><path
           d="M403 189l88 -9c-8,-63 -34,-109 -71,-143 -42,-33 -89,-49 -147,-49 -68,0 -126,24 -168,70 -47,47 -68,114 -68,198 0,59 13,105 30,147 17,42 46,75 84,97 38,21 80,29 126,29 54,0 101,-13 134,-42 38,-30 59,-67 72,-122l-84 -13c-9,34 -26,63 -47,80 -21,17 -46,25 -75,25 -42,0 -80,-16 -105,-46 -30,-33 -42,-84 -42,-151 0,-71 12,-122 38,-151 29,-34 63,-51 105,-51 33,0 63,13 88,34 21,21 38,55 42,97z"
           id="path180" /></glyph><glyph
         unicode="n"
         horiz-adv-x="556"
         id="glyph186"><path
           d="M67 0l0 516 80 0 0 -71c37,55 92,84 163,84 30,0 59,-4 84,-17 30,-8 47,-25 59,-42 13,-21 25,-42 30,-67 4,-17 4,-42 4,-84l0 -319 -88 0 0 315c0,37 -5,63 -9,79 -8,17 -21,34 -38,42 -16,13 -37,17 -63,17 -37,0 -67,-12 -96,-33 -25,-26 -38,-72 -38,-139l0 -281 -88 0z"
           id="path184" /></glyph><glyph
         unicode="m"
         horiz-adv-x="833"
         id="glyph190"><path
           d="M67 0l0 516 75 0 0 -71c17,25 38,46 68,63 25,13 58,21 92,21 38,0 67,-8 92,-21 26,-17 42,-42 55,-67 38,59 93,88 160,88 50,0 88,-13 117,-42 30,-30 42,-72 42,-130l0 -357 -88 0 0 327c0,34 -4,59 -8,76 -4,17 -17,25 -30,38 -16,8 -33,12 -54,12 -38,0 -67,-12 -88,-38 -26,-21 -38,-63 -38,-113l0 -302 -89 0 0 336c0,42 -8,67 -21,88 -16,21 -37,29 -71,29 -25,0 -46,-4 -67,-21 -21,-12 -38,-29 -46,-54 -9,-26 -13,-63 -13,-110l0 -268 -88 0z"
           id="path188" /></glyph><glyph
         unicode="d"
         horiz-adv-x="556"
         id="glyph194"><path
           d="M403 0l0 67c-34,-55 -84,-79 -147,-79 -42,0 -80,12 -114,33 -33,25 -63,54 -79,96 -21,42 -30,88 -30,143 0,50 9,97 25,139 17,42 47,75 80,96 34,26 72,34 114,34 33,0 58,-4 84,-17 25,-17 46,-34 58,-55l0 257 89 0 0 -714 -80 0zm-277 260c0,-67 12,-118 42,-151 25,-34 58,-51 96,-51 38,0 72,17 101,51 25,29 38,80 38,143 0,71 -13,121 -42,155 -25,34 -59,50 -101,50 -38,0 -71,-16 -97,-46 -25,-33 -37,-84 -37,-151z"
           id="path192" /></glyph><glyph
         unicode="l"
         horiz-adv-x="222"
         id="glyph198"><path
           d="M63 0l0 714 88 0 0 -714 -88 0z"
           id="path196" /></glyph><glyph
         unicode="i"
         horiz-adv-x="222"
         id="glyph202"><path
           d="M67 613l0 101 88 0 0 -101 -88 0zm0 -613l0 516 88 0 0 -516 -88 0z"
           id="path200" /></glyph><glyph
         unicode="k"
         horiz-adv-x="500"
         id="glyph206"><path
           d="M67 0l0 714 88 0 0 -408 206 210 113 0 -197 -189 218 -327 -109 0 -172 264 -59 -59 0 -205 -88 0z"
           id="path204" /></glyph><glyph
         unicode="a"
         horiz-adv-x="554"
         id="glyph210"><path
           d="M402 64c-32,-27 -65,-46 -92,-60 -33,-8 -65,-17 -98,-17 -55,0 -101,13 -129,40 -33,28 -46,65 -46,107 0,28 4,51 18,69 9,23 23,42 42,51 18,14 41,23 65,33 18,4 41,9 78,9 70,9 121,18 158,32 0,14 0,19 0,23 0,37 -10,61 -28,74 -23,19 -56,33 -97,33 -42,0 -74,-9 -93,-23 -18,-14 -32,-42 -42,-79l-88 14c10,37 24,65 37,88 19,23 47,42 79,51 33,14 74,18 116,18 46,0 83,-4 111,-14 28,-9 46,-23 60,-41 14,-14 23,-33 28,-56 0,-18 5,-41 5,-83l0 -116c0,-83 0,-134 4,-157 5,-19 10,-42 23,-60l-92 0c-9,18 -14,41 -19,64zm-4 195c-33,-14 -84,-23 -144,-33 -37,-4 -65,-9 -79,-18 -13,-5 -27,-14 -32,-28 -9,-14 -14,-28 -14,-42 0,-23 9,-41 28,-60 18,-14 42,-23 79,-23 32,0 60,9 88,23 27,14 46,37 60,60 9,19 14,51 14,88l0 33z"
           id="path208" /></glyph><glyph
         unicode="b"
         horiz-adv-x="555"
         id="glyph214"><path
           d="M148 0l-85 0 0 716 89 0 0 -255c38,47 85,68 144,68 30,0 59,-4 89,-17 30,-17 51,-34 72,-55 17,-25 30,-51 43,-85 8,-34 12,-67 12,-106 0,-89 -21,-156 -63,-207 -43,-47 -98,-71 -157,-71 -64,0 -110,24 -144,75l0 -63zm-4 262c0,-63 8,-106 25,-135 30,-43 68,-68 114,-68 39,0 72,17 98,51 30,34 42,84 42,148 0,68 -12,119 -38,153 -30,29 -59,46 -97,46 -38,0 -72,-17 -102,-51 -25,-34 -42,-80 -42,-144z"
           id="path212" /></glyph><glyph
         unicode="o"
         horiz-adv-x="556"
         id="glyph218"><path
           d="M33 260c0,97 25,168 80,214 46,38 101,55 164,55 71,0 130,-21 172,-67 46,-51 72,-114 72,-198 0,-63 -13,-117 -34,-155 -17,-38 -46,-67 -84,-88 -42,-21 -80,-33 -126,-33 -72,0 -130,24 -177,70 -46,47 -67,114 -67,202zm88 0c0,-67 17,-118 47,-151 29,-34 63,-51 109,-51 42,0 80,17 109,51 29,33 42,84 42,151 0,67 -13,113 -42,147 -29,34 -67,50 -109,50 -46,0 -80,-16 -109,-50 -30,-34 -47,-80 -47,-147z"
           id="path216" /></glyph><glyph
         unicode="x"
         horiz-adv-x="500"
         id="glyph222"><path
           d="M8 0l189 268 -176 248 109 0 80 -117c16,-26 29,-47 37,-59 13,21 26,38 38,54l88 122 105 0 -180 -243 193 -273 -105 0 -109 159 -25 46 -139 -205 -105 0z"
           id="path220" /></glyph><glyph
         unicode="z"
         horiz-adv-x="500"
         id="glyph226"><path
           d="M21 0l0 71 327 378c-38,0 -71,-4 -96,-4l-215 0 0 71 425 0 0 -54 -282 -332 -54 -59c42,4 79,4 113,4l239 0 0 -75 -457 0z"
           id="path224" /></glyph><glyph
         unicode="v"
         horiz-adv-x="500"
         id="glyph230"><path
           d="M210 0l-198 516 93 0 113 -306c8,-34 21,-72 34,-105 4,25 16,58 29,96l118 315 88 0 -193 -516 -84 0z"
           id="path228" /></glyph><glyph
         unicode="s"
         horiz-adv-x="500"
         id="glyph234"><path
           d="M29 155l88 13c4,-34 17,-63 42,-80 21,-17 51,-30 93,-30 42,0 71,9 88,26 21,16 29,37 29,58 0,21 -8,34 -25,47 -13,8 -42,16 -88,29 -67,17 -109,34 -135,42 -25,13 -46,29 -58,50 -13,21 -17,47 -17,72 0,21 4,42 17,63 8,21 25,38 42,50 12,9 33,17 54,26 25,4 51,8 76,8 42,0 75,-4 109,-17 29,-12 55,-29 67,-46 13,-21 25,-46 30,-80l-84 -13c-5,26 -17,47 -34,63 -21,13 -46,21 -80,21 -42,0 -71,-8 -88,-21 -17,-12 -25,-29 -25,-46 0,-12 4,-21 12,-29 5,-9 17,-17 34,-25 8,-5 34,-9 76,-21 63,-17 105,-30 130,-42 25,-9 46,-26 59,-47 12,-21 21,-46 21,-75 0,-30 -9,-55 -26,-80 -16,-29 -42,-46 -75,-63 -34,-12 -67,-20 -109,-20 -68,0 -118,16 -156,41 -33,29 -54,71 -67,126z"
           id="path232" /></glyph><glyph
         unicode="u"
         horiz-adv-x="556"
         id="glyph238"><path
           d="M407 0l0 75c-42,-59 -97,-87 -168,-87 -29,0 -59,8 -84,16 -25,12 -46,29 -59,46 -12,17 -21,38 -25,63 -4,21 -8,46 -8,84l0 319 88 0 0 -285c0,-47 4,-76 4,-93 8,-25 21,-42 38,-54 17,-13 38,-21 67,-21 25,0 50,8 71,21 26,12 42,33 51,54 8,25 12,59 12,101l0 277 89 0 0 -516 -76 0z"
           id="path236" /></glyph><glyph
         unicode="y"
         horiz-adv-x="500"
         id="glyph242"><path
           d="M63 -201l-13 84c21,-4 38,-9 50,-9 21,0 38,5 51,13 8,4 21,13 25,25 8,9 17,30 29,67 0,5 5,9 9,21l-198 516 93 0 109 -298c13,-38 25,-80 38,-122 8,42 21,80 38,118l109 302 88 0 -197 -524c-21,-59 -38,-97 -51,-118 -12,-29 -33,-50 -54,-63 -17,-12 -42,-21 -72,-21 -17,0 -33,5 -54,9z"
           id="path240" /></glyph><glyph
         unicode="p"
         horiz-adv-x="556"
         id="glyph246"><path
           d="M67 -197l0 713 80 0 0 -67c16,29 37,46 63,63 25,13 50,17 88,17 42,0 80,-8 113,-34 38,-21 63,-54 80,-96 17,-42 25,-89 25,-135 0,-54 -8,-101 -29,-143 -17,-46 -46,-75 -84,-100 -34,-21 -72,-33 -114,-33 -29,0 -54,8 -79,20 -21,13 -42,25 -55,46l0 -251 -88 0zm80 453c0,-67 12,-118 37,-147 30,-34 63,-51 101,-51 38,0 72,17 101,51 25,33 38,84 38,155 0,67 -13,114 -38,147 -29,34 -59,51 -97,51 -37,0 -71,-17 -100,-55 -30,-34 -42,-84 -42,-151z"
           id="path244" /></glyph><glyph
         unicode="t"
         horiz-adv-x="277"
         id="glyph250"><path
           d="M256 79l12 -79c-21,-4 -46,-8 -63,-8 -33,0 -58,8 -75,16 -17,8 -30,25 -38,38 -8,17 -8,54 -8,105l0 298 -68 0 0 67 68 0 0 131 84 54 0 -185 88 0 0 -67 -88 0 0 -302c0,-26 4,-42 4,-51 4,-4 8,-12 17,-17 8,-4 16,-4 29,-4 13,0 25,0 38,4z"
           id="path248" /></glyph><glyph
         unicode="r"
         horiz-adv-x="333"
         id="glyph254"><path
           d="M63 0l0 516 79 0 0 -75c21,33 42,59 59,71 17,13 34,17 55,17 29,0 59,-8 92,-29l-33 -80c-21,12 -42,21 -63,21 -21,0 -38,-9 -51,-21 -17,-9 -29,-26 -33,-47 -9,-29 -17,-67 -17,-100l0 -273 -88 0z"
           id="path252" /></glyph><glyph
         unicode=""
         horiz-adv-x="610"
         id="glyph258"><path
           d="M11 0l0 131 375 462 -335 0 0 124 526 0 0 -116 -394 -482 410 0 0 -119 -582 0zm120 904l112 0 51 -72 56 72 112 0 -100 -144 -127 0 -104 144z"
           id="path256" /></glyph><glyph
         unicode=""
         horiz-adv-x="500"
         id="glyph262"><path
           d="M21 0l0 71 327 378c-38,0 -71,-4 -96,-4l-215 0 0 71 425 0 0 -54 -282 -332 -54 -59c42,4 79,4 113,4l239 0 0 -75 -457 0zm243 638l55 80 101 0 -114 -134 -92 0 -105 134 101 0 54 -80z"
           id="path260" /></glyph><glyph
         unicode=""
         horiz-adv-x="500"
         id="glyph266"><path
           d="M29 155l88 13c4,-34 17,-63 42,-80 21,-17 51,-30 93,-30 42,0 71,9 88,26 21,16 29,37 29,58 0,21 -8,34 -25,47 -13,8 -42,16 -88,29 -67,17 -109,34 -135,42 -25,13 -46,29 -58,50 -13,21 -17,47 -17,72 0,21 4,42 17,63 8,21 25,38 42,50 12,9 33,17 54,26 25,4 51,8 76,8 42,0 75,-4 109,-17 29,-12 55,-29 67,-46 13,-21 25,-46 30,-80l-84 -13c-5,26 -17,47 -34,63 -21,13 -46,21 -80,21 -42,0 -71,-8 -88,-21 -17,-12 -25,-29 -25,-46 0,-12 4,-21 12,-29 5,-9 17,-17 34,-25 8,-5 34,-9 76,-21 63,-17 105,-30 130,-42 25,-9 46,-26 59,-47 12,-21 21,-46 21,-75 0,-30 -9,-55 -26,-80 -16,-29 -42,-46 -75,-63 -34,-12 -67,-20 -109,-20 -68,0 -118,16 -156,41 -33,29 -54,71 -67,126zm218 483l55 80 97 0 -110 -134 -92 0 -105 134 101 0 54 -80z"
           id="path264" /></glyph><glyph
         unicode="Á"
         horiz-adv-x="722"
         id="glyph270"><path
           d="M717 0l-156 0 -63 163 -287 0 -60 -163 -151 0 278 717 152 0 287 -717zm-267 282l-96 267 -100 -267 196 0zm-180 474l68 148 152 0 -132 -148 -88 0z"
           id="path268" /></glyph><glyph
         unicode="Í"
         horiz-adv-x="277"
         id="glyph274"><path
           d="M67 0l0 717 144 0 0 -717 -144 0zm-16 756l68 148 155 0 -135 -148 -88 0z"
           id="path272" /></glyph><glyph
         unicode="È"
         horiz-adv-x="722"
         id="glyph278"><path
           d="M529 262l140 -43c-20,-80 -56,-136 -108,-176 -48,-36 -111,-54 -187,-54 -96,0 -175,30 -235,94 -60,68 -92,156 -92,267 0,120 32,211 92,279 60,64 143,100 243,100 88,0 159,-28 215,-80 32,-28 56,-72 72,-132l-144 -31c-8,35 -27,63 -51,87 -28,20 -60,32 -100,32 -52,0 -96,-20 -127,-60 -36,-36 -52,-99 -52,-183 0,-92 16,-155 52,-195 31,-36 71,-56 123,-56 40,0 72,12 100,36 28,24 47,64 59,115zm-326 642l111 0 52 -72 56 72 111 0 -99 -144 -128 0 -103 144z"
           id="path276" /></glyph><glyph
         unicode="Ø"
         horiz-adv-x="722"
         id="glyph282"><path
           d="M71 0l0 717 307 0c76,0 131,-8 167,-20 32,-12 60,-36 80,-68 24,-36 32,-72 32,-116 0,-51 -16,-95 -48,-131 -28,-36 -76,-56 -139,-68 31,-16 55,-36 75,-60 20,-19 48,-59 84,-115l88 -139 -172 0 -107 155c-36,56 -60,92 -76,107 -12,12 -28,24 -44,28 -16,4 -40,8 -71,8l-28 0 0 -298 -148 0zm148 414l103 0c72,0 116,0 132,8 16,4 32,16 40,28 11,16 15,36 15,55 0,24 -8,44 -19,60 -12,12 -32,24 -56,28 -8,0 -44,0 -104,0l-111 0 0 -179zm-72 490l107 0 56 -72 56 72 108 0 -100 -144 -127 0 -100 144z"
           id="path280" /></glyph><glyph
         unicode="Ú"
         horiz-adv-x="722"
         id="glyph286"><path
           d="M546 714l96 0 0 -412c0,-71 -8,-130 -25,-172 -17,-42 -46,-76 -88,-101 -42,-29 -97,-41 -168,-41 -67,0 -122,12 -164,33 -42,25 -71,58 -92,100 -17,47 -26,105 -26,181l0 412 93 0 0 -412c0,-63 8,-109 17,-139 12,-29 33,-50 63,-67 25,-17 58,-25 100,-25 72,0 122,17 152,50 29,30 42,93 42,181l0 412zm-248 46l67 134 113 0 -105 -134 -75 0z"
           id="path284" /></glyph><glyph
         unicode="é"
         horiz-adv-x="556"
         id="glyph290"><path
           d="M420 168l92 -13c-17,-55 -42,-92 -80,-122 -38,-29 -88,-45 -147,-45 -80,0 -138,24 -180,70 -47,47 -68,114 -68,198 0,84 21,155 68,201 42,47 100,72 172,72 71,0 126,-21 172,-72 42,-46 67,-113 67,-197 0,-4 -4,-13 -4,-25l-386 0c4,-55 21,-101 50,-130 29,-30 63,-47 109,-47 30,0 59,9 80,26 25,16 42,46 55,84zm-286 142l286 0c0,42 -13,76 -30,97 -29,34 -67,50 -109,50 -42,0 -76,-12 -105,-42 -25,-25 -42,-63 -42,-105zm92 274l68 134 113 0 -109 -134 -72 0z"
           id="path288" /></glyph><glyph
         unicode="í"
         horiz-adv-x="277"
         id="glyph294"><path
           d="M96 0l0 516 88 0 0 -516 -88 0zm-4 584l63 134 118 0 -110 -134 -71 0z"
           id="path292" /></glyph><glyph
         unicode="á"
         horiz-adv-x="556"
         id="glyph298"><path
           d="M403 63c-34,-26 -63,-47 -93,-59 -29,-8 -63,-16 -96,-16 -59,0 -101,16 -130,41 -34,29 -47,63 -47,109 0,25 5,46 17,67 9,21 25,38 46,51 17,12 38,21 63,29 17,4 42,9 76,13 71,8 126,21 160,29 0,13 0,21 0,25 0,34 -9,59 -26,76 -25,21 -58,29 -100,29 -42,0 -72,-8 -93,-21 -21,-16 -33,-42 -42,-79l-88 12c8,38 21,67 38,88 21,26 46,43 80,55 33,13 71,17 117,17 42,0 80,-4 109,-13 26,-12 47,-25 59,-42 13,-17 21,-33 30,-59 0,-16 4,-42 4,-79l0 -118c0,-84 0,-134 4,-155 4,-21 13,-42 21,-63l-92 0c-9,16 -13,37 -17,63zm-4 197c-34,-13 -84,-25 -147,-34 -34,-4 -59,-12 -76,-16 -13,-9 -25,-17 -34,-30 -8,-12 -12,-25 -12,-42 0,-21 8,-42 25,-59 17,-16 46,-21 80,-21 33,0 63,5 88,21 29,13 46,34 59,59 8,21 17,51 17,88l0 34zm-173 324l63 134 118 0 -109 -134 -72 0z"
           id="path296" /></glyph><glyph
         unicode="è"
         horiz-adv-x="500"
         id="glyph302"><path
           d="M403 189l88 -9c-8,-63 -34,-109 -71,-143 -42,-33 -89,-49 -147,-49 -68,0 -126,24 -168,70 -47,47 -68,114 -68,198 0,59 13,105 30,147 17,42 46,75 84,97 38,21 80,29 126,29 54,0 101,-13 134,-42 38,-30 59,-67 72,-122l-84 -13c-9,34 -26,63 -47,80 -21,17 -46,25 -75,25 -42,0 -80,-16 -105,-46 -30,-33 -42,-84 -42,-151 0,-71 12,-122 38,-151 29,-34 63,-51 105,-51 33,0 63,13 88,34 21,21 38,55 42,97zm-130 449l54 80 101 0 -109 -134 -97 0 -105 134 101 0 55 -80z"
           id="path300" /></glyph><glyph
         unicode="ì"
         horiz-adv-x="556"
         id="glyph306"><path
           d="M420 168l92 -13c-17,-55 -42,-92 -80,-122 -38,-29 -88,-45 -147,-45 -80,0 -138,24 -180,70 -47,47 -68,114 -68,198 0,84 21,155 68,201 42,47 100,72 172,72 71,0 126,-21 172,-72 42,-46 67,-113 67,-197 0,-4 -4,-13 -4,-25l-386 0c4,-55 21,-101 50,-130 29,-30 63,-47 109,-47 30,0 59,9 80,26 25,16 42,46 55,84zm-286 142l286 0c0,42 -13,76 -30,97 -29,34 -67,50 -109,50 -42,0 -76,-12 -105,-42 -25,-25 -42,-63 -42,-105zm151 328l55 80 96 0 -109 -134 -92 0 -105 134 101 0 54 -80z"
           id="path304" /></glyph><glyph
         unicode="ú"
         horiz-adv-x="556"
         id="glyph310"><path
           d="M407 0l0 75c-42,-59 -97,-87 -168,-87 -29,0 -59,8 -84,16 -25,12 -46,29 -59,46 -12,17 -21,38 -25,63 -4,21 -8,46 -8,84l0 319 88 0 0 -285c0,-47 4,-76 4,-93 8,-25 21,-42 38,-54 17,-13 38,-21 67,-21 25,0 50,8 71,21 26,12 42,33 51,54 8,25 12,59 12,101l0 277 89 0 0 -516 -76 0zm-185 584l63 134 118 0 -109 -134 -72 0z"
           id="path308" /></glyph><glyph
         unicode="ò"
         horiz-adv-x="556"
         id="glyph314"><path
           d="M67 0l0 516 80 0 0 -71c37,55 92,84 163,84 30,0 59,-4 84,-17 30,-8 47,-25 59,-42 13,-21 25,-42 30,-67 4,-17 4,-42 4,-84l0 -319 -88 0 0 315c0,37 -5,63 -9,79 -8,17 -21,34 -38,42 -16,13 -37,17 -63,17 -37,0 -67,-12 -96,-33 -25,-26 -38,-72 -38,-139l0 -281 -88 0zm218 638l55 80 96 0 -109 -134 -92 0 -105 134 101 0 54 -80z"
           id="path312" /></glyph><glyph
         unicode="ó"
         horiz-adv-x="556"
         id="glyph318"><path
           d="M33 260c0,97 25,168 80,214 46,38 101,55 164,55 71,0 130,-21 172,-67 46,-51 72,-114 72,-198 0,-63 -13,-117 -34,-155 -17,-38 -46,-67 -84,-88 -42,-21 -80,-33 -126,-33 -72,0 -130,24 -177,70 -46,47 -67,114 -67,202zm88 0c0,-67 17,-118 47,-151 29,-34 63,-51 109,-51 42,0 80,17 109,51 29,33 42,84 42,151 0,67 -13,113 -42,147 -29,34 -67,50 -109,50 -46,0 -80,-16 -109,-50 -30,-34 -47,-80 -47,-147zm105 324l68 134 113 0 -109 -134 -72 0z"
           id="path316" /></glyph><glyph
         unicode="ù"
         horiz-adv-x="556"
         id="glyph322"><path
           d="M407 0l0 75c-42,-59 -97,-87 -168,-87 -29,0 -59,8 -84,16 -25,12 -46,29 -59,46 -12,17 -21,38 -25,63 -4,21 -8,46 -8,84l0 319 88 0 0 -285c0,-47 4,-76 4,-93 8,-25 21,-42 38,-54 17,-13 38,-21 67,-21 25,0 50,8 71,21 26,12 42,33 51,54 8,25 12,59 12,101l0 277 89 0 0 -516 -76 0zm-223 655c0,21 9,42 30,59 17,17 38,25 59,25 25,0 46,-8 63,-25 16,-17 25,-38 25,-63 0,-25 -9,-46 -25,-63 -17,-17 -38,-25 -63,-25 -21,0 -42,8 -59,25 -21,17 -30,38 -30,67zm38 -4c0,-13 4,-25 17,-38 8,-8 21,-13 38,-13 12,0 25,5 33,13 13,13 17,25 17,38 0,17 -4,29 -17,38 -8,12 -21,16 -33,16 -17,0 -30,-4 -38,-16 -13,-9 -17,-21 -17,-38z"
           id="path320" /></glyph><glyph
         unicode="ø"
         horiz-adv-x="333"
         id="glyph326"><path
           d="M63 0l0 516 79 0 0 -75c21,33 42,59 59,71 17,13 34,17 55,17 29,0 59,-8 92,-29l-33 -80c-21,12 -42,21 -63,21 -21,0 -38,-9 -51,-21 -17,-9 -29,-26 -33,-47 -9,-29 -17,-67 -17,-100l0 -273 -88 0zm121 638l55 80 101 0 -114 -134 -92 0 -105 134 101 0 54 -80z"
           id="path324" /></glyph><glyph
         unicode="ý"
         horiz-adv-x="500"
         id="glyph330"><path
           d="M63 -201l-13 84c21,-4 38,-9 50,-9 21,0 38,5 51,13 8,4 21,13 25,25 8,9 17,30 29,67 0,5 5,9 9,21l-198 516 93 0 109 -298c13,-38 25,-80 38,-122 8,42 21,80 38,118l109 302 88 0 -197 -524c-21,-59 -38,-97 -51,-118 -12,-29 -33,-50 -54,-63 -17,-12 -42,-21 -72,-21 -17,0 -33,5 -54,9zm142 785l63 134 118 0 -109 -134 -72 0z"
           id="path328" /></glyph></font>
</defs>
</svg>
